<?xml version="1.0" encoding="UTF-8"?>
<!-- Created with Inkscape (http://www.inkscape.org/) -->
<svg width="64" height="64" version="1.1" viewBox="0 0 16.933 16.933" xmlns="http://www.w3.org/2000/svg">
 <path d="m1.7885 7.2896q0.42012 0 0.76519-0.20688 0.34506-0.20688 0.55068-0.55194t0.20562-0.76506q0-0.41386-0.20562-0.76205-0.20562-0.3482-0.55068-0.55508-0.34506-0.20688-0.76519-0.20688-0.42251 0-0.76752 0.20567-0.34501 0.20567-0.55068 0.55388-0.20567 0.34819-0.20567 0.76445 0 0.42 0.20687 0.76506 0.20688 0.34506 0.55194 0.55194 0.34506 0.20688 0.76506 0.20688zm0-0.58348q-0.38666 0-0.66472-0.27682-0.27806-0.2768-0.27806-0.66357 0-0.3917 0.27806-0.6661 0.27806-0.2744 0.66472-0.2744 0.38679 0 0.66364 0.27686 0.27686 0.27686 0.27686 0.66364 0 0.38677-0.2756 0.66357-0.2756 0.27682-0.6649 0.27682zm6.6814-1.8087q0.42011 0 0.76512-0.20567t0.55068-0.55194q0.20567-0.34627 0.20567-0.76626 0-0.41386-0.20567-0.76205-0.20567-0.3482-0.55068-0.55381-0.34501-0.20562-0.76512-0.20562-0.41375 0-0.76321 0.20562-0.34944 0.2056-0.55506 0.55381-0.20562 0.34819-0.20562 0.76205 0 0.42 0.20688 0.76626 0.20688 0.34626 0.55506 0.55194 0.3482 0.20567 0.76196 0.20567zm0-0.58348q-0.38679 0-0.66359-0.27686-0.2768-0.27688-0.2768-0.66354 0-0.39169 0.2768-0.6661 0.2768-0.2744 0.66359-0.2744 0.38677 0 0.66363 0.27686 0.27686 0.27686 0.27686 0.66364 0 0.38666-0.2744 0.66354-0.2744 0.27686-0.66608 0.27686zm6.675 2.9756q0.41375 0 0.7632-0.20688 0.34944-0.20688 0.55512-0.55194 0.20567-0.34506 0.20567-0.76506 0-0.41626-0.20885-0.76445-0.20885-0.3482-0.55386-0.55388-0.34501-0.20567-0.76127-0.20567-0.42011 0-0.76512 0.20688-0.34501 0.20688-0.55068 0.55508-0.20567 0.34819-0.20567 0.76205 0 0.42 0.20567 0.76506t0.55068 0.55194q0.34501 0.20688 0.76512 0.20688zm0-0.58348q-0.38917 0-0.66359-0.27682-0.2744-0.2768-0.2744-0.66357 0-0.38679 0.2756-0.66364 0.27562-0.27686 0.66239-0.27686 0.38928 0 0.6661 0.2744 0.2768 0.2744 0.2768 0.6661 0 0.38677-0.2768 0.66357-0.27682 0.27682-0.6661 0.27682zm-12.732 0.28582 2.1638 1.3286q0.37242 0.23072 0.77301 0.17671 0.40059-0.053986 0.69066-0.42881l2.4909-3.1955-0.53898-0.22725-2.4048 3.0823q-0.14583 0.18968-0.32627 0.2116-0.18043 0.021903-0.38235-0.10601l-2.1657-1.3234zm12.108-0.031598-0.30057-0.48811-2.1 1.2894q-0.25488 0.15567-0.46056 0.11989-0.20567-0.035799-0.37291-0.26093l-2.3304-3.0089-0.53898 0.22975 2.5226 3.2585q0.2497 0.32436 0.61562 0.38784 0.36591 0.063483 0.63477-0.10174zm-11.095 5.0735h10.096v-0.56874h-10.096zm-1.4878-4.9865 1.4191 5.7612q0.18515 0.75457 0.58907 1.0977 0.40393 0.34314 1.1505 0.34314h6.7545q0.74407 0 1.1492-0.34314 0.40517-0.34314 0.58792-1.0977l1.4191-5.7612-0.53407-0.23842-1.4601 5.9782q-0.2209 0.89098-1.1533 0.89098h-6.7721q-0.94117 0-1.1558-0.89098l-1.4601-5.9782z" stroke-width=".17953"/>
</svg>
