<?xml version="1.0" encoding="UTF-8"?>
<!-- Created with Inkscape (http://www.inkscape.org/) -->
<svg width="64" height="64" version="1.1" viewBox="0 0 16.933 16.933" xmlns="http://www.w3.org/2000/svg">
 <path d="m3.7337 15.875h9.4737q1.1193 0 1.7059-0.57778 0.5866-0.57778 0.5866-1.6737v-8.9552h-0.72929v8.9607q0 0.75944-0.41443 1.1566t-1.1661 0.39711h-9.4469q-0.77793 0-1.1807-0.39711-0.40276-0.39711-0.40276-1.1566v-8.9607h-0.72148v8.9552q0 1.1036 0.58424 1.6775 0.58422 0.57393 1.7112 0.57393zm1.8378-7.6259h5.801q0.21812 0 0.33925-0.13087 0.12113-0.13087 0.12113-0.34897v-0.23033q0-0.22554-0.12113-0.35496-0.12113-0.12942-0.33925-0.12942h-5.801q-0.22582 0-0.34695 0.12942-0.12113 0.12942-0.12113 0.35496v0.23033q0 0.2181 0.12113 0.34897 0.12113 0.13087 0.34695 0.13087zm-4.0234-3.2667h13.837q0.61253 0 0.94805-0.36185 0.3355-0.36185 0.3355-0.95808v-1.2842q0-0.59318-0.3355-0.95656-0.33552-0.36338-0.94805-0.36338h-13.837q-0.59265 0-0.9381 0.36338-0.34547 0.36338-0.34547 0.95656v1.2842q0 0.59623 0.33942 0.95808 0.33942 0.36185 0.94414 0.36185zm0.10988-0.68927q-0.32799 0-0.49608-0.18488-0.16807-0.18485-0.16807-0.50826v-1.164q0-0.32339 0.16807-0.50439 0.16809-0.18103 0.49608-0.18103h13.62q0.32799 0 0.49696 0.18103 0.16897 0.181 0.16897 0.50439v1.164q0 0.32341-0.16897 0.50826-0.16897 0.18488-0.49696 0.18488z" stroke-width=".21912"/>
</svg>
