<?xml version="1.0" encoding="UTF-8"?>
<!-- Created with Inkscape (http://www.inkscape.org/) -->
<svg width="64" height="64" version="1.1" viewBox="0 0 16.933 16.933" xmlns="http://www.w3.org/2000/svg">
 <path d="m8.4615 16.404q1.6417 0 3.0739-0.61578 1.4322-0.61578 2.53-1.7154 1.0977-1.0996 1.7182-2.5328 0.6205-1.4332 0.6205-3.0736 0-1.6404-0.6205-3.0736-0.62052-1.4332-1.7194-2.5328-1.0989-1.0996-2.5311-1.7154-1.4322-0.61579-3.0739-0.61579-1.6314 0-3.0676 0.61579-1.4362 0.61577-2.5288 1.7154-1.0926 1.0996-1.7131 2.5328-0.62052 1.4332-0.62052 3.0736 0 1.6404 0.62052 3.0736 0.62052 1.4332 1.7143 2.5328 1.0937 1.0996 2.53 1.7154t3.0676 0.61578zm0-0.71891q-1.4925 0-2.8014-0.55891-1.3088-0.55891-2.2998-1.5517-0.991-0.9928-1.5535-2.3036-0.56252-1.3108-0.56252-2.8043 0-1.4935 0.56136-2.8043 0.56136-1.3108 1.5524-2.3036 0.991-0.9928 2.2998-1.5517 1.3088-0.55893 2.8014-0.55893 1.4949 0 2.8077 0.55893 1.3128 0.5589 2.301 1.5517 0.98818 0.99282 1.5519 2.3036 0.56368 1.3108 0.56368 2.8043 0 1.4935-0.55854 2.8043-0.55856 1.3108-1.5496 2.3036-0.991 0.99282-2.301 1.5517-1.31 0.55891-2.8128 0.55891zm-1.4664-2.863h3.3145q0.15011 0 0.24075-0.1003 0.09063-0.10032 0.09063-0.22665 0-0.13198-0.09063-0.22947-0.09064-0.09749-0.24075-0.09749h-1.3096v-4.9428q0-0.15752-0.093455-0.26429-0.093455-0.10676-0.2575-0.10676h-1.5794q-0.15011 0-0.24191 0.097473-0.091793 0.097495-0.091793 0.22947 0 0.13429 0.091793 0.23179 0.091793 0.097495 0.24191 0.097495h1.2351v4.6576h-1.3096q-0.14216 0-0.23793 0.09749-0.09577 0.0975-0.09577 0.22947 0 0.12634 0.09577 0.22665 0.095769 0.1003 0.23793 0.1003zm1.4478-7.5721q0.29991 0 0.50933-0.20394 0.20944-0.20394 0.20944-0.50402 0-0.3001-0.20944-0.512-0.20942-0.21189-0.50933-0.21189-0.29989 0-0.50651 0.21189t-0.20662 0.512q0 0.30008 0.20662 0.50402t0.50651 0.20394z" stroke-width=".21046"/>
</svg>
