<?xml version="1.0" encoding="UTF-8"?>
<!-- Created with Inkscape (http://www.inkscape.org/) -->
<svg id="svg1954" width="12.141mm" height="19.844mm" version="1.1" viewBox="0 0 12.141 19.844" xmlns="http://www.w3.org/2000/svg">
 <g id="g1962">
  <path id="path1951" d="m3.5817 19.609 8.3822-10.693q0.17693-0.21423 0.17693-0.39916 0-0.12476-0.08775-0.22209-0.08773-0.097325-0.26412-0.097325h-5.3913l2.8847-7.5706q0.10849-0.29173-0.0040878-0.46285-0.11255-0.17115-0.32867-0.16417-0.21614 0.0069517-0.39924 0.23403l-8.3737 10.693q-0.17693 0.21423-0.17693 0.39914 0 0.12479 0.087754 0.22211 0.087729 0.09732 0.26412 0.09732h5.3827l-2.8762 7.5703q-0.10849 0.29173 0.00409 0.46285 0.11255 0.17114 0.32433 0.16417 0.21181-7e-3 0.39488-0.23405zm0.38247-1.4678 2.9192-7.2678h-5.6123l7.0462-9.0904-0.14396-0.081144-2.9158 7.2678h5.6003l-7.0374 9.0904z" stroke-width=".24478"/>
 </g>
</svg>
