<?xml version="1.0" encoding="UTF-8"?>
<!-- Created with Inkscape (http://www.inkscape.org/) -->
<svg width="64" height="64" version="1.1" viewBox="0 0 16.933 16.933" xmlns="http://www.w3.org/2000/svg">
 <g stroke-width=".73779">
    <path d="m1.993 6.5122h-0.67006v-5.983h3.6616v0.67006h-2.9915zm0.67006 0v-4.6429h2.3214v0.67006h-1.6514v3.9728z"/>
    <path d="m4.9845 1.8693h5.3129v0.67006h-5.3129zm0-0.67006v-0.67006h5.3129v0.67006z"/>
    <path d="m10.297 1.8693h5.3129v0.67006h-2.3214v3.9728h-0.67006v-3.9728h-2.3214zm0-0.67006v-0.67006h5.3129v0.67006z"/>
    <path d="m1.993 16.414h-0.67006v-9.9602h0.67006zm0.67006-9.9602h0.67006v9.9602h-0.67006z"/>
    <path d="m5.2942 4.7625q0.22912 0 0.38475 0.15563t0.15563 0.38475q0 0.23344-0.15995 0.40204-0.15563 0.16427-0.38042 0.16427-0.22047 0-0.3761-0.16427-0.15563-0.1686-0.15563-0.40204t0.1513-0.38475q0.15563-0.15563 0.38042-0.15563z"/>
    <path d="m6.8817 4.7625q0.22912 0 0.38475 0.15563t0.15563 0.38475q0 0.23344-0.15995 0.40204-0.15563 0.16427-0.38042 0.16427-0.22047 0-0.3761-0.16427-0.15563-0.1686-0.15563-0.40204t0.1513-0.38475q0.15563-0.15563 0.38042-0.15563z"/>
    <path d="m12.612 16.412v-9.9602h0.67006v9.9602z"/>
 </g>
</svg>
