<?xml version="1.0" encoding="UTF-8"?>
<!-- Created with Inkscape (http://www.inkscape.org/) -->
<svg width="64" height="64" version="1.1" viewBox="0 0 16.933 16.933" xmlns="http://www.w3.org/2000/svg">
 <path d="m8.4652 16.22q0.76682 0 1.465-0.55015 0.69825-0.55015 1.2471-1.5702 0.54879-1.02 0.86729-2.444 0.3185-1.424 0.3185-3.1689 0-1.7477-0.31703-3.1732-0.31703-1.4255-0.86731-2.4469-0.55027-1.0214-1.247-1.5731-0.69676-0.55163-1.4665-0.55163-0.76682 0-1.4651 0.55163-0.69825 0.55161-1.247 1.5731-0.54882 1.0214-0.8659 2.4469-0.31709 1.4255-0.31709 3.1732 0 1.7449 0.31709 3.1689 0.31709 1.424 0.86738 2.444 0.55027 1.02 1.247 1.5702 0.69676 0.55015 1.4636 0.55015zm0-14.942q0.64929 0 1.2361 0.55654t1.0445 1.5471q0.45758 0.99061 0.7198 2.295 0.26221 1.3044 0.26221 2.8105 0 1.4411-0.26221 2.7367-0.26221 1.2956-0.7198 2.2995-0.4576 1.004-1.0445 1.5827t-1.2361 0.57872q-0.64647 0-1.237-0.57872-0.59052-0.57872-1.0444-1.5827-0.45392-1.004-0.71607-2.2995-0.26215-1.2956-0.26215-2.7367 0-1.506 0.26215-2.8105 0.26215-1.3044 0.71607-2.295 0.45392-0.99059 1.0444-1.5471 0.59054-0.55654 1.237-0.55654zm-0.30743-0.41511v15.196h0.61486v-15.196zm0.30743 11.015q-1.1988 0-2.2698 0.18846-1.071 0.18848-1.9241 0.53231-0.85313 0.34385-1.4182 0.79678l0.46324 0.38766q0.8428-0.61499 2.1472-0.94895 1.3044-0.33396 3.0016-0.33396 1.7002 0 3.0045 0.33396 1.3043 0.33396 2.1473 0.94895l0.46312-0.38766q-0.56508-0.45293-1.4233-0.79678-0.85827-0.34383-1.9241-0.53231-1.0659-0.18846-2.2675-0.18846zm7.5304-3.7186h-15.061v0.61498h15.061zm-7.5304-3.0626q1.2016 0 2.2675-0.18846 1.0658-0.18848 1.9241-0.53231 0.85827-0.34385 1.4233-0.79678l-0.46312-0.38767q-0.84293 0.615-2.1473 0.94896t-3.0045 0.33396q-1.6972 0-3.0016-0.33396t-2.1472-0.94896l-0.46324 0.38767q0.56508 0.45293 1.4182 0.79678 0.85313 0.34383 1.9241 0.53231 1.071 0.18846 2.2698 0.18846zm0 11.308q1.6389 0 3.0723-0.6178 1.4334-0.6178 2.5309-1.7169 1.0975-1.0991 1.7166-2.5328 0.61916-1.4336 0.61916-3.07 0-1.6364-0.61916-3.07-0.61916-1.4336-1.718-2.5328-1.0989-1.0991-2.5323-1.7169-1.4334-0.6178-3.0723-0.6178-1.6361 0-3.0732 0.6178-1.4371 0.6178-2.5295 1.7169-1.0924 1.0991-1.7115 2.5328-0.61909 1.4336-0.61909 3.07 0 1.6364 0.61909 3.07 0.61909 1.4336 1.7129 2.5328 1.0938 1.0991 2.5309 1.7169 1.4371 0.6178 3.0732 0.6178zm0-0.62637q-1.505 0-2.827-0.56969-1.322-0.56969-2.3313-1.5792-1.0093-1.0095-1.5789-2.3332-0.56959-1.3237-0.56959-2.829t0.56812-2.829q0.56811-1.3237 1.5775-2.3332 1.0093-1.0095 2.3314-1.5792 1.3221-0.56969 2.827-0.56969 1.5078 0 2.8298 0.56969 1.322 0.56969 2.3328 1.5792 1.0108 1.0095 1.5804 2.3332 0.56958 1.3237 0.56958 2.829t-0.56958 2.829q-0.56958 1.3237-1.5789 2.3332-1.0093 1.0095-2.3314 1.5792-1.3221 0.56969-2.8299 0.56969z" stroke-width=".21043"/>
</svg>
