<?xml version="1.0" encoding="UTF-8"?>
<!-- Created with Inkscape (http://www.inkscape.org/) -->
<svg width="64" height="64" version="1.1" viewBox="0 0 16.933 16.933" xmlns="http://www.w3.org/2000/svg">
 <path d="m8.481 12.55q1.429 0 2.6808-0.41315 1.2518-0.41315 2.2657-1.0656 1.0139-0.65245 1.741-1.3745 0.72713-0.72209 1.1194-1.358 0.39239-0.63591 0.39239-1.0055 0-0.37172-0.39516-1.0066t-1.1251-1.3569q-0.73002-0.72209-1.7468-1.3745-1.0168-0.65244-2.2629-1.0656-1.2461-0.41315-2.6693-0.41315-1.4223 0-2.6662 0.41315-1.2439 0.41315-2.2617 1.0656-1.0178 0.65245-1.7501 1.3745-0.73225 0.72207-1.1296 1.3569-0.39733 0.63483-0.39733 1.0066 0 0.36955 0.39444 1.0055 0.39446 0.63592 1.1239 1.358 0.72942 0.72207 1.7444 1.3745 1.015 0.65245 2.2646 1.0656 1.2496 0.41315 2.6776 0.41315zm0-0.57399q-1.3127 0-2.4635-0.38176-1.1507-0.38175-2.0914-0.97686-0.94065-0.59509-1.6175-1.2447-0.67685-0.64956-1.0424-1.2032-0.36557-0.55367-0.36557-0.83626 0-0.26925 0.36557-0.81846 0.36559-0.54922 1.0424-1.2038 0.67687-0.65462 1.6175-1.2542 0.94067-0.59959 2.0914-0.98864 1.1507-0.38904 2.4635-0.38904 1.3071 0 2.4577 0.38904 1.1507 0.38904 2.0914 0.98864 0.9407 0.59959 1.6176 1.2542 0.67692 0.65462 1.0414 1.2038 0.36443 0.54922 0.36443 0.81846 0 0.28259-0.36443 0.83626-0.36443 0.55367-1.0414 1.2032-0.67687 0.64956-1.6176 1.2447-0.94072 0.59511-2.0914 0.97686-1.1507 0.38176-2.4577 0.38176zm0-1.1699q0.95338 0 1.746-0.47339 0.7926-0.47338 1.2666-1.2642 0.47399-0.79082 0.47399-1.7353 0-0.96481-0.47399-1.7545t-1.2666-1.254q-0.79262-0.4643-1.746-0.4643-0.9705 0-1.7642 0.4643-0.79369 0.46432-1.262 1.254-0.46829 0.78973-0.46261 1.7545 0.00793 0.94451 0.4762 1.7353 0.46829 0.79082 1.2552 1.2642 0.78688 0.47339 1.7574 0.47339zm0.00575-2.4103q-0.44639 0-0.76531-0.31208-0.31892-0.31206-0.31892-0.75052 0-0.44639 0.31892-0.75562 0.31892-0.30923 0.76531-0.30923 0.44064 0 0.7527 0.30923 0.31208 0.30923 0.31208 0.75562 0 0.43846-0.31208 0.75052-0.31206 0.31208-0.75269 0.31208z" stroke-width=".16255"/>
</svg>
