<?xml version="1.0" encoding="UTF-8"?>
<!-- Created with Inkscape (http://www.inkscape.org/) -->
<svg id="svg1742" width="19.844mm" height="19.833mm" version="1.1" viewBox="0 0 19.844 19.833" xmlns="http://www.w3.org/2000/svg">
 <g id="layer1">
  <g id="g1849">
   <path id="path1662" d="m8.9543 19.833h1.9316q0.45476 0 0.76382-0.25089 0.30906-0.25089 0.41722-0.71289l0.43863-1.9014 0.60736-0.22287 1.6479 1.0381q0.40102 0.26171 0.79547 0.21476 0.39444-0.04695 0.7186-0.37462l1.3535-1.3502q0.33655-0.3188 0.37739-0.71592 0.04084-0.39712-0.21199-0.80353l-1.0416-1.6425 0.22288-0.60588 1.9014-0.43863q0.46202-0.11152 0.71464-0.42058 0.25265-0.30906 0.25265-0.76046v-1.9179q0-0.46011-0.2509-0.7665-0.2509-0.30636-0.7164-0.41452l-1.8945-0.44549-0.22636-0.60924 1.0416-1.6426q0.25283-0.40638 0.21199-0.80345-0.04084-0.39704-0.37724-0.71933l-1.3537-1.3502q-0.32419-0.32767-0.71687-0.37288-0.39269-0.045193-0.79371 0.21302l-1.6513 1.0347-0.61072-0.22636-0.43863-1.9014q-0.10816-0.46199-0.41722-0.71289-0.30906-0.25088-0.76382-0.25088h-1.9316q-0.45476 0-0.76214 0.25088-0.30739 0.2509-0.4154 0.71289l-0.43863 1.9014-0.62293 0.22636-1.6515-1.0347q-0.40103-0.25821-0.79196-0.21302-0.39094 0.045218-0.7186 0.37288l-1.3502 1.3502q-0.33638 0.32228-0.37721 0.71933-0.040861 0.39707 0.21199 0.80345l1.0382 1.6426-0.22651 0.60924-1.8856 0.44549q-0.462 0.10816-0.71289 0.41452-0.25089 0.30638-0.25089 0.7665v1.9179q0 0.4514 0.25257 0.76046 0.25257 0.30906 0.71122 0.42058l1.8925 0.43863 0.22301 0.60588-1.0382 1.6425q-0.26507 0.40641-0.21813 0.80353 0.04697 0.39712 0.3835 0.71592l1.3502 1.3502q0.3188 0.32767 0.71585 0.37462 0.39704 0.04696 0.79807-0.21476l1.6513-1.0381 0.61625 0.22287 0.43863 1.9014q0.10801 0.462 0.4154 0.71289 0.30739 0.25089 0.76214 0.25089zm0.10075-0.81022q-0.43528 0-0.52126-0.41418l-0.52864-2.2906q-0.34136-0.10464-0.67784-0.23181-0.33645-0.12716-0.61898-0.26795l-1.9831 1.2464q-0.35103 0.24396-0.67924-0.080746l-1.2059-1.2092q-0.30711-0.30027-0.068377-0.67053l1.2396-1.9883q-0.11838-0.27043-0.2533-0.60691-0.13495-0.33645-0.23961-0.67769l-2.2939-0.52529q-0.41417-0.091337-0.41417-0.52126v-1.7232q0-0.43528 0.41417-0.52476l2.2904-0.52178q0.10466-0.35158 0.24311-0.69149 0.13843-0.33988 0.24644-0.59997l-1.2362-1.9849q-0.23861-0.3701 0.064997-0.67721l1.2094-1.2025q0.32471-0.32121 0.6826-0.080746l1.9762 1.2363q0.28267-0.13395 0.62591-0.26452 0.34324-0.1306 0.68112-0.23525l0.52529-2.2904q0.085979-0.41432 0.52126-0.41432h1.7336q0.43513 0 0.52126 0.41432l0.52514 2.2973q0.36247 0.10466 0.68838 0.2335 0.32594 0.12882 0.60323 0.26292l1.9829-1.2398q0.35789-0.24046 0.6826 0.080746l1.2094 1.2025q0.3036 0.30711 0.06502 0.67721l-1.2396 1.9849q0.12559 0.26009 0.26129 0.59562 0.13568 0.33553 0.23698 0.69584l2.285 0.52178q0.4197 0.089484 0.4197 0.52476v1.7232q0 0.42992-0.4197 0.52126l-2.2886 0.52529q-0.10115 0.3501-0.23172 0.68215-0.1306 0.33202-0.2699 0.60245l1.2431 1.9883q0.2351 0.37026-0.06853 0.67053l-1.2059 1.2092q-0.32822 0.32471-0.67924 0.08075l-1.9864-1.2464q-0.27378 0.14079-0.59972 0.26795-0.32591 0.12717-0.68838 0.23181l-0.52514 2.2906q-0.08613 0.41418-0.52126 0.41418zm0.87391-5.4423q1.0025 0 1.8338-0.4995 0.83132-0.49947 1.3308-1.3352 0.4995-0.83575 0.4995-1.8382 0-1.0025-0.4995-1.826-0.49947-0.82353-1.3308-1.323-0.83132-0.49947-1.8338-0.49947-1.0025 0-1.8365 0.49947-0.834 0.4995-1.3352 1.323-0.50125 0.82353-0.50125 1.826 0 1.0113 0.50125 1.8427 0.50125 0.83132 1.3308 1.3308 0.82957 0.4995 1.8409 0.4995zm0-0.80688q-0.78442 0-1.4314-0.39221-0.64692-0.39221-1.0374-1.0408-0.39046-0.6486-0.39046-1.433 0-0.77223 0.39046-1.4165 0.39048-0.64424 1.0418-1.0347 0.65138-0.39048 1.4269-0.39048 0.77208 0 1.4191 0.39048 0.64699 0.39046 1.0375 1.0347 0.39048 0.64424 0.39048 1.4165 0 0.78445-0.39048 1.433-0.39046 0.64862-1.0375 1.0408-0.64702 0.39221-1.4191 0.39221z" stroke-width=".25038"/>
  </g>
 </g>
</svg>
