<?xml version="1.0" encoding="UTF-8"?>
<!-- Created with Inkscape (http://www.inkscape.org/) -->
<svg width="64" height="64" version="1.1" viewBox="0 0 16.933 16.933" xmlns="http://www.w3.org/2000/svg">
 <path d="m4.0089 16.669q0.33197 0 0.40149-0.33068l3.1686-15.526q0.010661-0.035063 0.017455-0.088149 0.00679-0.053108 0.00679-0.10305 0-0.1647-0.10261-0.26069-0.10263-0.096014-0.26733-0.096014-0.17488 0-0.27008 0.091317-0.095184 0.091317-0.12848 0.25601l-3.1655 15.52q-0.024249 0.128-0.024249 0.18345 0 0.17231 0.095752 0.26298 0.095773 0.09067 0.2682 0.09067zm5.3386 0q0.33971 0 0.41228-0.33068l3.1655-15.526q0.0029-0.035063 0.01359-0.088149 0.01068-0.053108 0.01068-0.10305 0-0.1647-0.10263-0.26069-0.10263-0.096014-0.26733-0.096014-0.18261 0-0.27629 0.091317-0.09366 0.091317-0.11919 0.25601l-3.1762 15.52q-0.02438 0.128-0.02438 0.18345 0 0.17231 0.099618 0.26298 0.09964 0.09067 0.26434 0.09067zm-6.8277-10.972h12.98q0.17958 0 0.28817-0.11152t0.1086-0.28817q0-0.15111-0.09365-0.25455-0.09366-0.10344-0.26012-0.10344h-12.972q-0.18427 0-0.29287 0.11539-0.1086 0.11541-0.1086 0.29029 0 0.15884 0.097456 0.25542 0.097477 0.096582 0.25326 0.096582zm-1.1107 5.8669h12.987q0.17971 0 0.2921-0.11152 0.11242-0.11155 0.11242-0.28819 0-0.15109-0.09746-0.25455-0.097473-0.10344-0.25618-0.10344h-12.984q-0.18733 0-0.29593 0.11541-0.10861 0.11539-0.10861 0.29029 0 0.15884 0.097473 0.25542 0.097456 0.09658 0.25324 0.09658z" stroke-width=".21846"/>
</svg>
