<?xml version="1.0" encoding="UTF-8"?>
<!-- Created with Inkscape (http://www.inkscape.org/) -->
<svg width="64" height="64" version="1.1" viewBox="0 0 16.933 16.933" xmlns="http://www.w3.org/2000/svg">
 <path d="m5.0548 12.583h7.1477q0.45941 0 0.45941-0.4689v-7.2945q0-0.46888-0.45941-0.46888h-7.1477q-0.45648 0-0.45648 0.46888v7.2945q0 0.4689 0.45648 0.4689zm0.36135-0.65434q-0.17359 0-0.17359-0.1801v-6.5634q0-0.1801 0.17359-0.1801h6.425q0.17652 0 0.17652 0.1801v6.5634q0 0.1801-0.17652 0.1801zm-2.8309 3.1785h12.087q0.2176 0 0.34314-0.12815 0.12554-0.12815 0.12554-0.35004v-12.324q0-0.22188-0.12554-0.35004-0.12554-0.12815-0.34314-0.12815h-12.087q-0.21438 0-0.34146 0.12815-0.12708 0.12815-0.12708 0.35004v12.324q0 0.22189 0.12708 0.35004 0.12708 0.12815 0.34146 0.12815zm0.45187-0.7357q-0.19167 0-0.19167-0.19558v-11.418q0-0.19558 0.19167-0.19558h11.186q0.18874 0 0.18874 0.19558v11.418q0 0.19558-0.18874 0.19558zm3.0127 0.21972h-0.72874v1.4413q0 0.16178 0.10139 0.26681 0.10141 0.10503 0.26291 0.10503 0.15855 0 0.26148-0.10503 0.10296-0.10503 0.10296-0.26681zm2.9394 0h-0.72105v1.4413q0 0.16178 0.10296 0.26681 0.10293 0.10503 0.25368 0.10503 0.1615 0 0.26296-0.10503 0.10146-0.10503 0.10146-0.26681zm3.0277 0h-0.72874v1.4413q0 0.16178 0.10679 0.26681 0.10677 0.10503 0.25751 0.10503 0.15857 0 0.2615-0.10503 0.10293-0.10503 0.10293-0.26681zm2.6104-3.508v0.73558h1.4126q0.1615 0 0.26289-0.10347 0.10141-0.10345 0.10141-0.26027 0-0.16177-0.10141-0.26679-0.10139-0.10505-0.26289-0.10505zm0-3.007v0.74341h1.4126q0.1615 0 0.26289-0.10496 0.10141-0.10498 0.10141-0.26675 0-0.16177-0.10141-0.26675-0.10139-0.10496-0.26289-0.10496zm0-2.9991v0.73558h1.4126q0.1615 0 0.26289-0.10505 0.10141-0.10503 0.10141-0.26679 0-0.15682-0.10141-0.26027-0.10139-0.10347-0.26289-0.10347zm-3.4197-2.7346h0.73181v-1.4413q0-0.1538-0.10294-0.26281-0.10293-0.10901-0.26148-0.10901-0.1615 0-0.26446 0.10901-0.10293 0.10901-0.10293 0.26281zm-2.9394 0h0.72105v-1.4413q0-0.1538-0.10146-0.26281-0.10146-0.10901-0.26296-0.10901-0.15074 0-0.25368 0.10901-0.10296 0.10901-0.10296 0.26281zm-2.9471 0h0.72874v-1.4413q0-0.1538-0.10296-0.26281-0.10293-0.10901-0.26148-0.10901-0.1615 0-0.26291 0.10901-0.10139 0.10901-0.10139 0.26281zm-2.691 3.4732v-0.73857h-1.7366q-0.15841 0-0.26137 0.10498-0.10293 0.10496-0.10293 0.26191 0 0.16177 0.10293 0.26673 0.10296 0.10496 0.26137 0.10496zm0 3.0071v-0.74355h-1.7366q-0.15841 0-0.26137 0.10503-0.10293 0.10503-0.10293 0.26668 0 0.16177 0.10293 0.26679 0.10296 0.10505 0.26137 0.10505zm0 2.9991v-0.73556h-1.7366q-0.15841 0-0.26137 0.10496-0.10293 0.10498-0.10293 0.26675 0 0.15682 0.10293 0.26034 0.10296 0.10352 0.26137 0.10352z" stroke-width=".22274"/>
</svg>
