<?xml version="1.0" encoding="UTF-8"?>
<!-- Created with Inkscape (http://www.inkscape.org/) -->
<svg id="svg699" width="19.844mm" height="12.32mm" version="1.1" viewBox="0 0 19.844 12.32" xmlns="http://www.w3.org/2000/svg">
 <g id="layer1">
  <g id="g1880">
   <path id="path409" d="m2.2319 12.32h15.38q1.1033 0 1.6676-0.56879 0.56429-0.56879 0.56429-1.6544v-7.8764q0-1.0856-0.56429-1.653-0.56433-0.56736-1.6676-0.56736h-15.38q-1.1063 0-1.6691 0.55993-0.56285 0.55996-0.56285 1.6604v7.8764q0 1.1005 0.56285 1.6618 0.56283 0.56136 1.6691 0.56136zm0.020624-0.69897q-0.76594 0-1.1598-0.39244-0.39384-0.39244-0.39384-1.167v-7.8032q0-0.77455 0.39384-1.167 0.39386-0.39244 1.1598-0.39244h15.339q0.74359 0 1.1486 0.39244 0.40496 0.39244 0.40496 1.167v7.8032q0 0.77455-0.40496 1.167-0.40503 0.39244-1.1486 0.39244zm0.79441-7.436h0.63326q0.33908 0 0.33908-0.34206v-0.63324q0-0.34206-0.33908-0.34206h-0.63326q-0.34205 0-0.34205 0.34206v0.63324q0 0.34206 0.34205 0.34206zm2.6025 0h0.63324q0.33911 0 0.33911-0.34206v-0.63324q0-0.34206-0.33911-0.34206h-0.63324q-0.34206 0-0.34206 0.34206v0.63324q0 0.34206 0.34206 0.34206zm2.6025 0h0.63325q0.3391 0 0.3391-0.34206v-0.63324q0-0.34206-0.3391-0.34206h-0.63325q-0.34206 0-0.34206 0.34206v0.63324q0 0.34206 0.34206 0.34206zm2.6025 0h0.63325q0.3391 0 0.3391-0.34206v-0.63324q0-0.34206-0.3391-0.34206h-0.63325q-0.34206 0-0.34206 0.34206v0.63324q0 0.34206 0.34206 0.34206zm2.6025 0h0.63326q0.33911 0 0.33911-0.34206v-0.63324q0-0.34206-0.33911-0.34206h-0.63326q-0.34205 0-0.34205 0.34206v0.63324q0 0.34206 0.34205 0.34206zm2.6025 0h0.63326q0.33911 0 0.33911-0.34206v-0.63324q0-0.34206-0.33911-0.34206h-0.63326q-0.34204 0-0.34204 0.34206v0.63324q0 0.34206 0.34204 0.34206zm-13.012 2.6025h0.63326q0.33908 0 0.33908-0.34204v-0.63326q0-0.34204-0.33908-0.34204h-0.63326q-0.34205 0-0.34205 0.34204v0.63326q0 0.34204 0.34205 0.34204zm2.6025 0h0.63324q0.33911 0 0.33911-0.34204v-0.63326q0-0.34204-0.33911-0.34204h-0.63324q-0.34206 0-0.34206 0.34204v0.63326q0 0.34204 0.34206 0.34204zm2.6025 0h0.63325q0.3391 0 0.3391-0.34204v-0.63326q0-0.34204-0.3391-0.34204h-0.63325q-0.34206 0-0.34206 0.34204v0.63326q0 0.34204 0.34206 0.34204zm2.6025 0h0.63325q0.3391 0 0.3391-0.34204v-0.63326q0-0.34204-0.3391-0.34204h-0.63325q-0.34206 0-0.34206 0.34204v0.63326q0 0.34204 0.34206 0.34204zm2.6025 0h0.63326q0.33911 0 0.33911-0.34204v-0.63326q0-0.34204-0.33911-0.34204h-0.63326q-0.34205 0-0.34205 0.34204v0.63326q0 0.34204 0.34205 0.34204zm2.6025 0h0.63326q0.33911 0 0.33911-0.34204v-0.63326q0-0.34204-0.33911-0.34204h-0.63326q-0.34204 0-0.34204 0.34204v0.63326q0 0.34204 0.34204 0.34204zm-13.012 2.6025h0.63326q0.33908 0 0.33908-0.34204v-0.63326q0-0.34204-0.33908-0.34204h-0.63326q-0.34205 0-0.34205 0.34204v0.63326q0 0.34204 0.34205 0.34204zm2.6285 0h8.3858q0.36804 0 0.36804-0.36814v-0.57833q0-0.37087-0.36804-0.37087h-8.3858q-0.36804 0-0.36804 0.37087v0.57833q0 0.36814 0.36804 0.36814zm10.384 0h0.63326q0.33911 0 0.33911-0.34204v-0.63326q0-0.34204-0.33911-0.34204h-0.63326q-0.34204 0-0.34204 0.34204v0.63326q0 0.34204 0.34204 0.34204z" stroke-width=".2115"/>
  </g>
 </g>
</svg>
