<?xml version="1.0" encoding="UTF-8"?>
<!-- Created with Inkscape (http://www.inkscape.org/) -->
<svg width="64" height="64" version="1.1" viewBox="0 0 16.933 16.933" xmlns="http://www.w3.org/2000/svg">
 <path d="m7.6783 5.3973-0.60559 0.60395q1.0007-0.058508 1.695 0.19462 0.69425 0.25311 1.2157 0.77727 0.72969 0.72959 0.96976 1.627 0.24005 0.89745-0.01306 1.7935-0.25311 0.8961-0.99438 1.6373l-2.5526 2.5525q-0.744 0.73685-1.64 0.98633-0.89601 0.24947-1.7899 0.014435t-1.6234-0.95734q-0.72957-0.73972-0.96964-1.6335-0.24005-0.89382 0.0094261-1.7899 0.24947-0.89608 0.99348-1.6372l2.1479-2.1407q-0.082206-0.17411-0.099826-0.41795-0.017641-0.24387 0.054092-0.49895l-2.6363 2.6436q-0.86447 0.8616-1.1601 1.9142-0.29559 1.0527-0.007218 2.1126 0.28837 1.0599 1.17 1.9387 0.88605 0.88605 1.9424 1.1722t2.109-0.0072q1.0527-0.29338 1.9142-1.155l2.6801-2.6829q0.8616-0.86157 1.1586-1.9129 0.29704-1.0513 0.0072-2.1125-0.28978-1.0613-1.1686-1.9402-0.51139-0.51139-1.1662-0.79095t-1.6399-0.29112zm1.5755 6.1636 0.60286-0.6012q-0.99789 0.058508-1.6886-0.19456-0.69067-0.25305-1.2121-0.77734-0.72957-0.72959-0.96962-1.627-0.24005-0.89745 0.0094261-1.7935 0.24947-0.89603 0.9906-1.6373l2.5599-2.5526q0.74125-0.73686 1.6387-0.98633 0.89745-0.24947 1.7913-0.014437t1.6162 0.95746q0.73674 0.73244 0.97321 1.6299 0.23647 0.89745-0.01444 1.7935-0.25091 0.89601-0.99204 1.6373l-2.1407 2.1406q0.07504 0.17411 0.09625 0.41795 0.02119 0.24387-0.05781 0.49895l2.6437-2.6436q0.86147-0.86147 1.1549-1.9142 0.29344-1.0527 0.007208-2.1126-0.28621-1.0599-1.165-1.9388-0.88605-0.88881-1.9459-1.1736-1.0599-0.2848-2.1125 0.0086457-1.0526 0.29344-1.9071 1.1549l-2.6801 2.6829q-0.86874 0.86159-1.1622 1.9129-0.29344 1.0513-0.00723 2.1126 0.28623 1.0613 1.1722 1.9401 0.50424 0.51139 1.1612 0.79095 0.65697 0.27956 1.6377 0.28837z" stroke-width=".20536"/>
</svg>
