<?xml version="1.0" encoding="UTF-8"?>
<!-- Created with Inkscape (http://www.inkscape.org/) -->
<svg id="svg2477" width="64" height="64" version="1.1" viewBox="0 0 16.933 16.933" xmlns="http://www.w3.org/2000/svg">
 <path id="path2397" d="m0.21349 6.765q0 1.3567 0.51296 2.5418 0.51295 1.1849 1.4153 2.0914 0.9024 0.90642 2.0858 1.4138 1.1835 0.5074 2.5434 0.5074 1.1519 0 2.188-0.3766 1.0361-0.3766 1.874-1.0473l4.7717 4.783q0.08956 0.09444 0.20843 0.14408 0.11886 0.04965 0.25292 0.04965 0.30427 0 0.479-0.19783 0.17475-0.19783 0.17475-0.47018 0-0.12904-0.04721-0.24237-0.04722-0.11333-0.13557-0.21263l-4.7655-4.7686q0.72615-0.852 1.136-1.9341 0.40987-1.0821 0.40987-2.2814 0-1.352-0.50899-2.5354-0.50897-1.1834-1.4098-2.0898-0.90088-0.90642-2.0898-1.4154-1.1889-0.50899-2.5378-0.50899-1.3599 0-2.5434 0.50899-1.1835 0.50899-2.0858 1.4154-0.90238 0.90642-1.4153 2.0898-0.51296 1.1834-0.51296 2.5354zm0.77353 0q0-1.1888 0.4502-2.235 0.45018-1.0461 1.2474-1.8419 0.7973-0.79571 1.8434-1.2475 1.0461-0.45176 2.2429-0.45176 1.1888 0 2.2332 0.45176 1.0445 0.45179 1.8419 1.2475 0.7973 0.79571 1.2491 1.8419 0.45179 1.0461 0.45179 2.235 0 1.1966-0.45179 2.2412-0.45179 1.0446-1.2491 1.8419-0.7973 0.79728-1.8419 1.249-1.0446 0.45179-2.2332 0.45179-1.1967 0-2.2429-0.45179-1.0461-0.45176-1.8434-1.249-0.7973-0.79723-1.2474-1.8419-0.4502-1.0446-0.4502-2.2412z" stroke-width=".2271"/>
</svg>
