<?xml version="1.0" encoding="UTF-8"?>
<!-- Created with Inkscape (http://www.inkscape.org/) -->
<svg width="64" height="64" version="1.1" viewBox="0 0 16.933 16.933" xmlns="http://www.w3.org/2000/svg">
 <path d="m1.6424 14.072q0.14577 0 0.23256-0.06952 0.086776-0.06954 0.14376-0.23048l1.3316-3.4734h5.0217l1.3246 3.4734q0.05696 0.16095 0.1437 0.23049 0.08673 0.06952 0.23248 0.06952 0.15978 0 0.25422-0.08679 0.09446-0.08679 0.09446-0.24387 0-0.09741-0.04866-0.22386l-4.0337-10.428q-0.06516-0.16485-0.17888-0.25655-0.1137-0.091702-0.29547-0.091702-0.35117 0-0.47598 0.34556l-4.0408 10.433q-0.048651 0.11554-0.048651 0.22386 0 0.15707 0.091698 0.24252 0.091703 0.08544 0.25146 0.08544zm1.9234-4.4002 2.2819-5.9744h0.034965l2.2749 5.9744zm7.9024 6.6318h4.5262q0.30478 0 0.30478-0.27457 0-0.26031-0.30478-0.26031h-1.963v-14.374h1.963q0.30478 0 0.30478-0.26582 0-0.26463-0.30478-0.26463h-4.5262q-0.29764 0-0.29764 0.26463 0 0.26582 0.29764 0.26582h1.9603v14.374h-1.9603q-0.29764 0-0.29764 0.26031 0 0.27457 0.29764 0.27457z" stroke-width=".20106"/>
</svg>
