<?xml version="1.0" encoding="UTF-8"?>
<!-- Created with Inkscape (http://www.inkscape.org/) -->
<svg width="64" height="64" version="1.1" viewBox="0 0 16.933 16.933" xmlns="http://www.w3.org/2000/svg">
 <path d="m3.0857 7.3605q-0.13041 0.080156-0.1502 0.19254-0.019786 0.11238 0.039628 0.2105 0.059414 0.098115 0.17052 0.13109 0.11112 0.032972 0.24005-0.052181l2.1051-1.3339q0.12783-0.077564 0.16622-0.20746 0.038411-0.12988-0.0044994-0.26173-0.042892-0.13183-0.16172-0.20289l-2.1051-1.3313q-0.12893-0.087765-0.24326-0.053543-0.11433 0.034222-0.17374 0.12784-0.059414 0.093602-0.036419 0.21053 0.023013 0.11693 0.15342 0.19448l1.9424 1.1893zm2.7985 0.64365q0 0.11757 0.077283 0.19373 0.077264 0.076146 0.18956 0.076146h2.6832q0.11883 0 0.19611-0.076146 0.077283-0.076165 0.077283-0.19373 0-0.12029-0.077283-0.19515-0.077283-0.074841-0.19611-0.074841h-2.6832q-0.1123 0-0.18956 0.074841-0.077283 0.074859-0.077283 0.19515zm-3.6736 6.8126h12.512q0.96709 0 1.4565-0.5016 0.48944-0.5016 0.48944-1.4589v-8.7791q0-0.95726-0.48944-1.4589-0.48942-0.5016-1.4565-0.5016h-12.512q-0.96204 0-1.454 0.49505-0.49196 0.49503-0.49196 1.4654v8.7791q0 0.97036 0.49196 1.4654 0.49195 0.49504 1.454 0.49504zm0.018016-0.61893q-0.66779 0-1.0112-0.34604-0.34337-0.34604-0.34337-1.0264v-8.7173q0-0.68297 0.34337-1.0277 0.34339-0.34472 1.0112-0.34472h12.476q0.64828 0 1.0014 0.34472 0.35313 0.34474 0.35313 1.0277v8.7173q0 0.68037-0.35313 1.0264-0.35315 0.34604-1.0014 0.34604z" stroke-width=".18545"/>
</svg>
